<?xml version="1.0" encoding="UTF-8"?>
<svg width="1199px" height="320px" viewBox="0 0 1199 320" version="1.1" xmlns="http://www.w3.org/2000/svg" xmlns:xlink="http://www.w3.org/1999/xlink">
    <!-- Generator: sketchtool 51.2 (57519) - http://www.bohemiancoding.com/sketch -->
    <title>AD0C0B82-201E-4519-9AE1-6E1E30A61F0A</title>
    <desc>Created with sketchtool.</desc>
    <defs></defs>
    <g id="Page-1" stroke="none" stroke-width="1" fill="none" fill-rule="evenodd">
        <g id="assets_fussball-wm.pro" transform="translate(-20.000000, -115.000000)" fill="#3B97A4" fill-rule="nonzero">
            <g id="sticky_background_waves" transform="translate(20.000000, 115.000000)">
                <path d="M1139.41285,277.11159 C1125.44244,275.330885 1111.38604,274.306193 1097.3051,274.041993 C1044.08091,272.993838 1007.99924,291.898062 1001,293.769768 C1034.19962,284.935318 1053.40076,280.630396 1085.58979,286.507551 C1110.18072,290.999644 1120.92287,293.769768 1143.19319,297.737783 C1160.89716,301.031985 1178.22684,303.744414 1199,305.616119 L1199,284.998627 C1174.59622,280.244495 1148.84499,278.384349 1139.41285,277.11159 Z" id="Shape"></path>
                <path d="M935.236688,221.221142 C870.286205,219.319331 847.885606,230.05897 793.666398,239.045959 C764.998168,244.025 735.762075,244.91651 706.840623,241.693578 C677.986249,237.703504 650.257534,234.869433 616,224.65186 C638.250512,231.550586 662.864906,238.523893 685.753291,244.900553 C739.065534,259.711825 793.218006,271.354613 847.923128,279.767088 C900.153672,287.859107 953.209699,283.496129 1004.12697,273.875203 C1065.06261,262.464337 1084.34889,263.023693 1129,266.939187 C1129,266.939187 1048.14021,246.578622 1025.40192,238.374732 C996.287314,228.54922 965.944241,222.776566 935.236688,221.221142 Z" id="Shape"></path>
                <path d="M1108.66491,197.452105 C1079.921,191.481549 1046.07373,185.661195 1034.89138,183.295503 C978.604345,171.467041 947.34628,170.077667 884.34233,193.884792 C860.213957,203.009604 795.483871,232.224026 744,236.95541 C801,232.48688 833.496379,224.07553 880.965109,213.786647 C910.984858,207.290381 968.697828,210.03158 1006.33509,218.931089 C1060.89598,231.88607 1088.8894,246.831236 1135.49506,259.33561 C1156.63819,264.797288 1177.2249,269.547895 1199,271.182449 L1199,209.73 C1180.65043,208.60348 1129.00329,201.695331 1108.66491,197.452105 Z" id="Shape"></path>
                <path d="M1145.65815,164.926033 C1115.48234,162.001133 1088.86764,159.976203 1067.68834,159.376223 C1035.93813,158.476254 1003.96301,158.813742 973,164.663542 C988.409044,164.265751 1003.81628,165.522902 1018.95721,168.413413 C1049.88273,174.375708 1082.15774,178.98805 1113.42063,184.200371 C1144.00879,189.262697 1164.02604,192.655375 1199,195.954926 L1199,171.614937 C1177.89567,168.502544 1159.2279,166.275986 1145.65815,164.926033 Z" id="Shape"></path>
                <path d="M1010.70926,84.7156621 C965.7264,86.911148 909.722743,96.8665407 871,120.373381 C894.367103,109.705503 919.097563,102.39201 944.472,98.6456413 C989.192457,92.3998626 1028.51497,97.2072196 1072.22331,108.7903 C1112.48297,119.427051 1145.84526,136.276056 1199,145.815063 L1199,110.001144 C1175.1089,102.150633 1150.6769,96.3178748 1125.90286,92.097037 C1082.56937,85.0941942 1057.34149,82.6337359 1010.70926,84.7156621 Z" id="Shape"></path>
                <path d="M1166.08933,13.8792315 C1136.88532,9.19030192 1109.66568,3.41354071 1072,0 C1081.28538,0.975297347 1111.35053,10.6532479 1122.88237,13.8792315 C1149.65271,21.3815188 1170.84434,31.8385013 1199,41.0663147 L1199,18.7694702 C1189.58984,16.6947134 1176.61026,15.5297347 1166.08933,13.8792315 Z" id="Shape"></path>
                <path d="M1012.84982,6.2759827 C973.139472,8.43642465 934.179563,17.9907039 897.96728,34.4490435 C866.679961,48.4417888 836.853966,65.2856028 804.292672,76.6898778 C771.094391,88.3942652 736.846954,93.8713183 702,97.9603511 C737.761528,102.767223 774.058073,101.868235 809.53845,95.2968527 C841.387817,89.1820605 875.447904,80.2912278 906.547874,71.437909 C940.270733,61.796795 972.944436,54.9692357 1008.24103,57.4451638 C1040.48541,60.0332626 1072.36385,66.0442465 1103.33949,75.3768856 C1134.80009,84.209782 1166.73895,90.7946563 1199,95.9805756 L1199,57.0005341 C1172.09665,48.55987 1137.77428,34.111417 1108.95997,23.2323389 C1076.62349,11.0027546 1047.39701,4.55033583 1012.84982,6.2759827 Z" id="Shape"></path>
                <path d="M1093.18595,126.164279 C1055.5265,116.175385 1017.49196,108.636597 978.407156,109.013537 C939.322351,109.390476 900.837695,119.680922 864.641114,135.399295 C832.082946,149.572216 800.875116,166.119856 767.116647,178.031141 C689.547186,205.623105 616.028741,198.725114 537.258979,182.215168 C460.252159,166.119856 374.505646,181.423595 352,187.793871 C433.207874,172.18858 498.774324,187.039992 560.552323,200.760586 C593.260529,208.035517 635.571144,225.223953 733.80829,224.99779 C766.178911,224.99779 804.701076,214.330405 853.088216,196.953498 C881.220274,186.851522 932.683185,160.80501 1011.86555,150.024543 C1053.46349,144.332758 1098.99991,151.833852 1139.6226,156.847146 C1142.32328,157.148698 1180.88295,164.227552 1199,164.642185 L1199,156.999646 C1163.9287,149.272388 1128.4448,135.474683 1093.18595,126.164279 Z" id="Shape"></path>
                <path d="M889.477533,86.486001 C812.950089,111.249121 751.158209,115.151188 708.826271,113.050075 C681.154907,111.699359 653.483544,103.107307 627.461963,94.2901357 C598.403281,84.4224077 570.881898,70.7651719 541.223295,62.7734379 C523.273168,57.7465701 504.66071,55.4943899 486.030548,56.0948995 C449.922793,57.7082543 415.539811,70.7651719 384.793851,89.2999919 C368.483494,99.1677199 353.223,110.536243 338,121.942286 C364.246551,107.647212 389.893181,93.9899766 420.076715,91.2510255 C448.499678,89.0271283 477.095111,91.037593 504.928065,97.2166862 C516.965662,100.011267 528.823269,103.532061 540.435899,107.759772 L568.594698,120.066292 C656.8581,163.064073 721.799566,166.478382 781.754188,145.42973 C816.36214,133.310809 849.657765,117.66502 883.703291,103.970264 C918.79868,89.9378298 955.806317,77.7063494 993.301389,73.9543616 C1029.10918,70.6526123 1063.2297,78.8319458 1099,82.2087348 C1061.7299,74.8173188 988.052079,54.5941044 889.477533,86.486001 Z" id="Shape"></path>
                <path d="M664.830589,14.4267858 C612.906369,1.33644821 576,3.0767821 576,3.0767821 C576,3.0767821 642.904526,38.640127 670.499827,47.72013 C696.312234,56.559873 723.395341,61.0466518 750.657607,60.9996343 C776.713479,60.2411055 802.571514,56.1864001 827.624093,48.930797 C852.741449,42.1207948 877.370724,33.4191253 902,24.9444559 C902,24.9444559 839.150294,45.2231291 789.779109,45.1852958 C741.721985,45.1852958 711.198203,26.1172896 664.830589,14.4267858 Z" id="Shape"></path>
                <path d="M631.035792,46.5060145 C600.390874,30.3914462 567.195338,15.0693977 532.874529,10.0878449 C491.989632,4.12507727 450.842171,6.31394135 411.945255,20.9189482 C379.087301,33.297352 349.080037,52.242348 315.321865,62.771539 C285.652183,71.9043857 254.932246,78.1313266 225,87 C262.189685,83.0034662 299.112719,76.8034991 335.576768,68.4323944 C374.061084,60.0543284 401.030113,52.3178261 457.631315,47.4872295 C500.466684,43.7133259 526.798059,43.0340232 561.981576,53.8273875 C609.993198,68.5456115 653.353695,82.5467938 690.562702,84.0186162 C727.77171,85.4904386 756.841247,78.9238463 793,70.8099536 C793,70.9609098 706.95417,86.6226096 631.035792,46.5060145 Z" id="Shape"></path>
                <path d="M240.658783,64.2889495 C285.809541,53.7277121 329.559472,37.8548491 371,17 C247.483323,57.3291598 173.913281,41.82952 119.991914,35.9983449 C77.5072771,31.3710252 38.8848797,23.7340668 0,18.7681628 L0,41.0771103 C41.8494063,54.7630459 84.8844446,64.4865112 128.541338,70.1201247 C165.94142,75.3922173 204.002532,73.4126769 240.658783,64.2889495 Z" id="Shape"></path>
                <path d="M755.327407,279.568304 C728.125983,273.208062 701.266485,265.471326 674.853046,256.388094 C647.940679,247.6253 622.94258,236.690532 596.555698,226.429825 C565.459137,214.555063 533.128248,206.189584 500.166632,201.489567 C467.341019,196.560369 434.195293,194.057036 401,194 C407.831312,194.711509 464.020733,200.441028 506.39739,220.513067 C536.425136,234.705797 558.007579,247.363165 587.697513,261.930373 C620.089944,277.770808 653.270604,292.225672 688.553206,300.426748 C722.638791,307.931391 757.625673,310.529159 792.449208,308.141002 C833.474616,305.969028 874.424956,298.891387 914.999948,292.712494 C915.075017,292.937181 834.262845,296.607069 755.327407,279.568304 Z" id="Shape"></path>
                <path d="M329,293 L329.52,293 L329,293 Z" id="Shape"></path>
                <path d="M601.523583,287.803318 C557.116503,271.766531 514.248468,257.519897 466.387922,259.123575 C418.527375,260.727254 374.007683,278.106656 329,292.42788 C355.876981,284.968909 393.452203,279.262797 421.305164,281.239424 C464.886414,284.223012 507.379072,295.075815 555.840222,306.674514 C607.855494,319.460667 661.724916,323.083429 715,317.378137 L667.289604,309.919167 C644.279004,304.660592 623.558203,295.747122 601.523583,287.803318 Z" id="Shape"></path>
                <path d="M687.172482,165.233894 C641.684174,162.154057 602.908486,143.524799 561.320247,127.073963 C518.344484,110.059742 474.656208,94.6981166 427.742875,101.759206 C353.341554,113.026902 310.028285,157.083593 273.765141,186.680075 C196.738774,249.441142 187.288606,254.060897 125,271 C213.276567,259.244037 243.052096,229.685115 282.802802,211.431447 C329.791136,189.83503 376.291962,165.309012 428.342886,158.623512 C463.293507,154.116433 500.044159,157.121152 534.844777,161.966262 C566.457838,166.435781 596.645874,176.989856 628.146434,181.534494 C743.273478,198.022889 829,137.590479 829,137.590479 C785.146638,159.647774 736.08432,169.210445 687.172482,165.233894 Z" id="Shape"></path>
                <path d="M335.120014,209.9384 C281.076372,225.253253 220.581998,260.90054 174.75179,272.283707 C146.848619,279.173518 72.7401977,282.056755 49,282.393756 C131.509376,293.065475 224.144903,301.116071 301.253665,278.649294 C335.420048,268.726467 370.261507,261.087763 405.252983,254.310285 C439.175663,247.949165 473.91017,247.152377 508.089669,251.951273 C539.802825,256.230795 570.549425,265.893482 599,280.521525 C599,280.521525 499.051142,217.614549 430.230822,206.006714 C400.902489,201.213802 363.585748,201.887805 335.120014,209.9384 Z" id="Shape"></path>
                <path d="M163.399434,108.740061 C202.79806,106.670459 239.687458,98.5049364 278,89.9254935 C257.776371,91.7693212 237.477839,95.1559434 217.216759,96.17193 C176.212961,98.4931438 135.09329,94.6888093 95.2008622,84.8831894 C62.8056042,77.0939583 33.7060488,68.5145155 0,57 L0,95.9837843 C20.5981409,99.7466979 48.6865149,104.036419 62.99286,105.72973 C96.2760876,110.119636 129.91491,111.128175 163.399434,108.740061 Z" id="Shape"></path>
                <path d="M279.64,90.0676264 L278,90.4676264 L278.92,90.4676264 C278.92,90.4676264 280.84,89.7876264 279.64,90.0676264 Z" id="Shape"></path>
                <path d="M55.96,119.24 L55,119 L55.96,119.24 Z" id="Shape"></path>
                <path d="M130.081377,124.066899 C105.649617,124.061558 81.2419079,122.538095 57,119.505356 C92.6037478,127.6937 129.294347,135.321198 165.685125,137.938477 C203.649963,140.667925 244.8004,138.574102 281.341089,126.45984 C333.17265,109.297968 369.600905,80.8444079 413,62 C376.79661,70.300513 304.502263,94.2299199 260.428571,106.456351 C218.014888,118.36022 174.140893,124.287813 130.081377,124.066899 Z" id="Shape"></path>
                <polygon id="Shape" points="56 120 56.68 120.2 57.2 120.2 56.76 120.2"></polygon>
                <path d="M123,300.606273 C83.4146565,299.314974 49.049771,293.227421 0,285 L0,305.623893 C19.9252403,308.140561 40.0593966,308.659752 60.0916031,307.173452 C84.3160305,305.697681 100.72855,301.897572 123,300.606273 Z" id="Shape"></path>
                <path d="M95,171 C82.2510823,169.661202 34.6576151,164.076503 0,157 L0,164.650273 C34.5454545,166.945355 60.8658009,170.655738 95,171 Z" id="Shape"></path>
                <path d="M209.909702,219.632501 C259.289175,191.462763 341,112 341,112 C341,112 271.831186,163.857926 212.463165,186.830573 C168.415923,203.890588 117.496862,212.891347 62.4471974,212.966667 C41.9819403,212.966667 20.4277062,210.933023 0,209.7279 L0,271.189146 C24.7990682,272.864003 49.7046549,271.942632 74.3132915,268.439961 C122.002973,262.640309 163.083691,246.333495 209.909702,219.632501 Z" id="Shape"></path>
                <path d="M290.997863,134.105422 C270.655017,141.261859 249.739021,146.625943 228.483327,150.137802 C186.644659,156.581075 144.993272,151.27485 103.866273,141.60994 C68.6186252,133.305679 33.9269105,122.747843 0,110 L0,145.817018 C16.0687454,148.849147 54.2741542,155.823043 70.3428996,158.400352 C220.99207,182.240463 291.447339,133.802209 290.997863,134.105422 Z" id="Shape"></path>
                <path d="M241,164 C200.610893,173.980743 159.159304,179.019359 117.555486,179.005202 C78.2696451,178.556561 39.0327821,176.089957 0,171.61514 L0,195.96108 C27.6445111,198.661245 55.4351608,199.563455 83.1965759,198.662016 C142.837043,196.598801 225.921089,171.465088 241,164 Z" id="Shape"></path>
            </g>
        </g>
    </g>
</svg>